<?xml version="1.0" encoding="UTF-8" standalone="no"?>
<svg
   xmlns:dc="http://purl.org/dc/elements/1.1/"
   xmlns:cc="http://creativecommons.org/ns#"
   xmlns:rdf="http://www.w3.org/1999/02/22-rdf-syntax-ns#"
   xmlns:svg="http://www.w3.org/2000/svg"
   xmlns="http://www.w3.org/2000/svg"
   xmlns:sodipodi="http://sodipodi.sourceforge.net/DTD/sodipodi-0.dtd"
   xmlns:inkscape="http://www.inkscape.org/namespaces/inkscape"
   width="256"
   height="234"
   viewBox="0 0 204.8 187.2"
   id="svg3042"
   version="1.1"
   inkscape:version="0.48.4 r9939"
   sodipodi:docname="hands.svg">
  <metadata
     id="metadata3052">
    <rdf:RDF>
      <cc:Work
         rdf:about="">
        <dc:format>image/svg+xml</dc:format>
        <dc:type
           rdf:resource="http://purl.org/dc/dcmitype/StillImage" />
        <dc:title></dc:title>
      </cc:Work>
    </rdf:RDF>
  </metadata>
  <defs
     id="defs3050" />
  <sodipodi:namedview
     pagecolor="#333333"
     bordercolor="#666666"
     borderopacity="1"
     objecttolerance="10"
     gridtolerance="10"
     guidetolerance="10"
     inkscape:pageopacity="1"
     inkscape:pageshadow="2"
     inkscape:window-width="2560"
     inkscape:window-height="1578"
     id="namedview3048"
     showgrid="true"
     inkscape:zoom="4.346875"
     inkscape:cx="176.46414"
     inkscape:cy="112.90414"
     inkscape:window-x="1672"
     inkscape:window-y="-8"
     inkscape:window-maximized="1"
     inkscape:current-layer="svg3042"
     inkscape:showpageshadow="false"
     showborder="true" />
  <path
     d="m 41.514417,3.69e-4 c -0.208464,-0.0036 -0.414548,0.01977 -0.624946,0.04164 -1.683188,0.173257 -3.399706,1.141166 -4.249633,2.540553 -1.066574,2.832091 1.133235,5.17273 2.416458,7.455064 9.34919,14.427009 17.281836,29.770282 27.830923,43.39764 C 55.238227,63.514185 46.272337,76.333563 39.556253,90.12751 33.056815,85.29629 26.482385,80.531723 20.349583,75.217386 14.983381,70.619402 10.558764,65.046847 5.0592409,60.598796 2.2094876,61.981524 -0.94857219,64.297174 0.26798916,67.928915 10.38378,80.756623 24.032598,90.16915 37.098132,99.7483 c 1.399879,12.59447 4.149641,25.24726 9.499177,36.77554 -1.416544,1.7992 -3.316379,3.34852 -4.08298,5.58088 -0.516621,4.88119 6.074476,9.30425 9.957471,5.62254 6.316119,-5.73083 13.982124,-9.47919 21.414813,-13.49408 4.766254,-2.73213 1.266557,-10.92855 -3.833001,-10.4954 -4.982903,0.46646 -9.015886,3.89829 -13.415506,5.99738 -3.999654,-11.2784 -7.24104,-22.88998 -7.707665,-34.90138 6.132802,-12.29461 14.207103,-23.672949 24.289562,-33.06883 3.549692,1.782553 7.024392,3.706711 10.457428,5.705834 -8.399271,8.34634 -15.873624,17.567296 -23.28965,26.779926 -2.416458,2.99869 -0.724937,7.1052 1.458206,9.70408 7.149383,10.32879 20.706542,13.28584 32.538848,11.70319 9.065895,16.24289 15.531995,33.88515 26.331045,49.14512 1.56653,2.04911 3.1414,4.63964 6.04115,4.70626 4.39962,1.06621 9.44918,-4.23979 6.24946,-8.28802 -11.21569,-15.2933 -17.95679,-33.20211 -27.03932,-49.72819 2.03317,-1.28276 4.0663,-2.53223 6.08281,-3.83165 7.33269,16.22621 13.79879,33.37703 25.99774,46.68786 4.2663,4.68127 12.00729,-1.35774 9.70749,-6.7887 -1.74985,-3.13196 -4.2663,-5.71415 -6.49944,-8.49627 7.53268,-5.49759 14.84872,-11.28672 21.91477,-17.36739 11.23238,-9.36256 25.25614,-14.16046 38.455,-19.99123 4.84959,-1.63262 3.99133,-10.7203 -1.54153,-10.28716 -12.43226,4.54801 -24.85617,9.54582 -36.12188,16.57606 -1.79982,-12.0447 -4.11629,-24.23936 -9.99913,-35.067946 11.68234,-6.080666 22.07309,-15.060063 28.62253,-26.571682 2.91642,-4.631303 -5.07456,-9.737397 -7.70766,-4.706269 -5.76617,8.746164 -13.26552,16.317845 -22.41473,21.532224 -11.03238,-4.164842 -22.19808,-8.712845 -34.08039,-9.662429 -8.7659,-0.766332 -17.36515,1.940814 -24.831174,6.372206 C 88.352027,55.342768 81.885919,52.877181 75.969766,49.561969 63.537508,35.268237 55.688189,17.742589 45.055776,2.166086 44.348547,0.701103 42.973649,0.025651 41.514417,3.69e-4 z m 73.910263,65.554588 c 11.10737,-0.26655 22.30307,5.269356 32.66384,8.829461 7.28269,11.594912 9.19086,25.413852 11.12403,38.691362 -7.566,6.09732 -14.9487,12.45287 -22.91468,18.03376 -4.59959,-8.6462 -8.33262,-17.70889 -12.49892,-26.57167 5.21622,3.1153 12.06563,5.67252 17.74847,2.12406 3.31639,-1.41604 1.14989,-7.62166 -2.24982,-5.12275 -6.68274,3.54844 -13.05719,-1.93248 -17.45681,-6.49715 0.68328,-3.23192 3.02474,-7.08022 0.37496,-9.99562 -2.69976,-3.615082 -9.52417,-3.331873 -10.54075,1.58264 -4.1663,15.92635 -26.681017,23.41473 -38.91329,11.78649 9.332526,-11.19509 18.390074,-23.531342 31.62227,-30.361678 3.64635,-1.665937 7.33768,-2.41061 11.0407,-2.498905 z M 85.885573,116.65754 c -0.658563,-0.0166 -1.318636,0.10313 -1.999827,0.37485 -2.849754,0.71635 -5.266211,3.86496 -4.249632,6.83034 4.516276,16.95923 14.707059,31.5445 24.372876,45.93817 2.76644,3.99827 5.08291,8.37134 8.41597,11.95312 4.59958,3.21523 12.39891,-2.17406 9.08252,-7.45508 -10.56574,-16.95924 -23.856259,-32.71899 -29.789079,-52.14379 -0.514539,-2.86958 -2.979064,-5.42764 -5.832828,-5.49761 z m -7.874317,19.03332 c -0.684611,0.0789 -1.395713,0.35402 -2.124817,0.79132 -8.515929,5.78081 -18.148429,10.34547 -24.831183,18.40861 -3.666348,4.04822 -0.116656,11.67821 5.499524,10.91187 2.666435,-1.21613 4.316293,-3.82332 6.499436,-5.70582 5.716173,-5.68083 13.565493,-8.49628 19.498313,-13.91057 3.60177,-3.64423 0.250989,-11.04751 -4.541273,-10.49541 z m 6.874405,13.82728 c -1.441874,0.031 -2.838297,0.58308 -3.916329,1.79087 -6.466106,6.26392 -13.8488,11.57827 -19.914942,18.24202 -3.466365,4.58132 2.258138,11.27838 7.457688,8.99604 5.599516,-4.24813 10.440763,-9.44584 15.956951,-13.82727 2.749761,-2.73214 6.916067,-5.0228 7.08272,-9.37089 -0.183318,-3.44745 -3.493972,-5.89865 -6.666088,-5.83077 z m 7.582675,15.9097 c -1.126465,-0.0413 -2.249805,0.22489 -3.249718,0.91625 -5.149554,2.99868 -9.807484,6.9886 -13.540494,11.6199 -2.649771,3.3985 0.491623,8.9794 4.6246,9.16266 4.56627,0.73301 6.782745,-4.21483 9.999132,-6.49716 2.666436,-2.83207 7.832655,-3.98158 8.165961,-8.41297 0.674941,-3.63592 -2.620086,-6.66453 -5.999481,-6.78868 z"
     id="path3044"
     style="fill:#ffffff"
     inkscape:connector-curvature="0" />
</svg>
