<?xml version="1.0" encoding="UTF-8" standalone="no"?>
<svg
   xmlns:dc="http://purl.org/dc/elements/1.1/"
   xmlns:cc="http://creativecommons.org/ns#"
   xmlns:rdf="http://www.w3.org/1999/02/22-rdf-syntax-ns#"
   xmlns:svg="http://www.w3.org/2000/svg"
   xmlns="http://www.w3.org/2000/svg"
   xmlns:sodipodi="http://sodipodi.sourceforge.net/DTD/sodipodi-0.dtd"
   xmlns:inkscape="http://www.inkscape.org/namespaces/inkscape"
   width="128pt"
   height="128pt"
   viewBox="0 0 128 128"
   version="1.1"
   id="svg3007"
   inkscape:version="0.48.4 r9939"
   sodipodi:docname="hands.svg">
  <metadata
     id="metadata3027">
    <rdf:RDF>
      <cc:Work
         rdf:about="">
        <dc:format>image/svg+xml</dc:format>
        <dc:type
           rdf:resource="http://purl.org/dc/dcmitype/StillImage" />
      </cc:Work>
    </rdf:RDF>
  </metadata>
  <defs
     id="defs3025" />
  <sodipodi:namedview
     pagecolor="#ffffff"
     bordercolor="#666666"
     borderopacity="1"
     objecttolerance="10"
     gridtolerance="10"
     guidetolerance="10"
     inkscape:pageopacity="0"
     inkscape:pageshadow="2"
     inkscape:window-width="2560"
     inkscape:window-height="1578"
     id="namedview3023"
     showgrid="false"
     inkscape:zoom="5.9"
     inkscape:cx="76.445374"
     inkscape:cy="96.57374"
     inkscape:window-x="1672"
     inkscape:window-y="-8"
     inkscape:window-maximized="1"
     inkscape:current-layer="svg3007" />
  <path
     d="M 33.0625 12.125 C 31.801562 12.254687 30.5125 12.98125 29.875 14.03125 C 29.075 16.15625 30.725 17.9125 31.6875 19.625 C 38.7 30.45 44.65 41.9625 52.5625 52.1875 C 43.825 59.75 37.1 69.36875 32.0625 79.71875 C 27.1875 76.09375 22.25625 72.51875 17.65625 68.53125 C 13.63125 65.08125 10.3125 60.9 6.1875 57.5625 C 4.05 58.6 1.68125 60.3375 2.59375 63.0625 C 10.18125 72.6875 20.41875 79.75 30.21875 86.9375 C 31.26875 96.3875 33.33125 105.88125 37.34375 114.53125 C 36.28125 115.88125 34.85625 117.04375 34.28125 118.71875 C 33.89375 122.38125 38.8375 125.7 41.75 122.9375 C 46.4875 118.6375 52.2375 115.825 57.8125 112.8125 C 61.3875 110.7625 58.7625 104.6125 54.9375 104.9375 C 51.2 105.2875 48.175 107.8625 44.875 109.4375 C 41.875 100.975 39.44375 92.2625 39.09375 83.25 C 43.69375 74.025 49.75 65.4875 57.3125 58.4375 C 59.975 59.775 62.58125 61.21875 65.15625 62.71875 C 58.85625 68.98125 53.25 75.9 47.6875 82.8125 C 45.875 85.0625 47.14375 88.14375 48.78125 90.09375 C 54.14375 97.84375 64.3125 100.0625 73.1875 98.875 C 79.9875 111.0625 84.8375 124.3 92.9375 135.75 C 94.1125 137.2875 95.29375 139.23125 97.46875 139.28125 C 100.76875 140.08125 104.55625 136.1 102.15625 133.0625 C 93.74375 121.5875 88.6875 108.15 81.875 95.75 C 83.4 94.7875 84.925 93.85 86.4375 92.875 C 91.9375 105.05 96.7875 117.91875 105.9375 127.90625 C 109.1375 131.41875 114.94375 126.8875 113.21875 122.8125 C 111.90625 120.4625 110.01875 118.525 108.34375 116.4375 C 113.99375 112.3125 119.48125 107.96875 124.78125 103.40625 C 133.20625 96.38125 143.725 92.78125 153.625 88.40625 C 157.2625 87.18125 156.61875 80.3625 152.46875 80.6875 C 143.14375 84.1 133.825 87.85 125.375 93.125 C 124.025 84.0875 122.2875 74.9375 117.875 66.8125 C 126.6375 62.25 134.43125 55.5125 139.34375 46.875 C 141.53125 43.4 135.5375 39.56875 133.5625 43.34375 C 129.2375 49.90625 123.6125 55.5875 116.75 59.5 C 108.475 56.375 100.1 52.9625 91.1875 52.25 C 84.6125 51.675 78.1625 53.70625 72.5625 57.03125 C 68.6625 53.61875 63.8125 51.76875 59.375 49.28125 C 50.05 38.55625 44.1625 25.40625 36.1875 13.71875 C 35.58125 12.4625 34.323437 11.995313 33.0625 12.125 z M 88.96875 61.28125 C 97.299609 61.082617 105.69688 65.234375 113.46875 67.90625 C 118.93125 76.60625 120.3625 86.975 121.8125 96.9375 C 116.1375 101.5125 110.6 106.28125 104.625 110.46875 C 101.175 103.98125 98.375 97.18125 95.25 90.53125 C 99.1625 92.86875 104.3 94.7875 108.5625 92.125 C 111.05 91.0625 109.425 86.40625 106.875 88.28125 C 101.8625 90.94375 97.08125 86.83125 93.78125 83.40625 C 94.29375 80.98125 96.05 78.09375 94.0625 75.90625 C 92.0375 73.19375 86.91875 73.40625 86.15625 77.09375 C 83.03125 89.04375 66.14375 94.6625 56.96875 85.9375 C 63.96875 77.5375 70.7625 68.28125 80.6875 63.15625 C 83.421875 61.90625 86.191797 61.347461 88.96875 61.28125 z "
     transform="scale(0.8,0.8)"
     id="path3011" />
  <path
     fill="#3d3d3d"
     d=" M 52.24 79.93 C 54.42 79.06 56.57 80.87 56.95 82.99 C 60.51 94.65 68.48 104.11 74.82 114.29 C 76.81 117.46 72.13 120.70 69.37 118.77 C 67.37 116.62 65.98 114.00 64.32 111.60 C 58.52 102.96 52.41 94.20 49.70 84.02 C 49.09 82.24 50.53 80.36 52.24 79.93 Z"
     id="path3015"
     style="fill:#000000" />
  <path
     fill="#3d3d3d"
     d=" M 47.46 91.59 C 50.96 89.49 53.91 94.93 51.44 97.43 C 47.88 100.68 43.17 102.36 39.74 105.77 C 38.43 106.90 37.45 108.46 35.85 109.19 C 32.48 109.65 30.35 105.09 32.55 102.66 C 36.56 97.82 42.35 95.06 47.46 91.59 Z"
     id="path3017"
     style="fill:#000000" />
  <path
     fill="#3d3d3d"
     d=" M 50.50 100.50 C 52.57 98.18 56.70 99.91 56.86 102.92 C 56.76 105.53 54.26 106.92 52.61 108.56 C 49.30 111.19 46.39 114.29 43.03 116.84 C 39.91 118.21 36.47 114.20 38.55 111.45 C 42.19 107.45 46.62 104.26 50.50 100.50 Z"
     id="path3019"
     style="fill:#000000" />
  <path
     fill="#3d3d3d"
     d=" M 55.45 109.53 C 57.85 107.87 61.55 110.14 61.01 113.05 C 60.81 115.71 57.71 116.41 56.11 118.11 C 54.18 119.48 52.84 122.44 50.10 122.00 C 47.62 121.89 45.74 118.54 47.33 116.50 C 49.57 113.72 52.36 111.33 55.45 109.53 Z"
     id="path3021"
     style="fill:#000000" />
</svg>
